<svg xmlns="http://www.w3.org/2000/svg" viewBox="0 0 24 24"><path d="M1.728 23.997C.777 23.994.003 23.22 0 22.271V9.747c.029-.536.248-1.009.617-1.35.019-.017.038-.033.057-.048l10.873-8.2c.129-.098.29-.151.452-.151.162 0 .322.054.451.151l10.873 8.2c.02.015.039.031.057.048.369.342.588.806.617 1.308L24 22.269c-.003.95-.777 1.725-1.726 1.728H1.728zM1.616 9.518c-.07.074-.111.17-.117.272L1.5 22.269c0 .125.104.228.23.228h20.542c.125 0 .228-.104.228-.23V9.747c-.005-.066-.048-.158-.116-.229L12 1.687 1.616 9.518z"/></svg>