<svg xmlns="http://www.w3.org/2000/svg" viewBox="0 0 24 24"><path d="M1.5 20C.673 20 0 19.327 0 18.5V15c0-.276.224-.5.5-.5C1.879 14.5 3 13.378 3 12 3 10.621 1.879 9.5.5 9.5.224 9.5 0 9.276 0 9V5.5C0 4.673.673 4 1.5 4h21c.827 0 1.5.673 1.5 1.5V9c0 .276-.224.5-.5.5-1.378 0-2.5 1.121-2.5 2.5 0 1.378 1.122 2.5 2.5 2.5.276 0 .5.224.5.5v3.5c0 .827-.673 1.5-1.5 1.5h-21zM1 18.5c0 .276.224.5.5.5h21c.276 0 .5-.224.5-.5v-3.036c-1.7-.245-3-1.724-3-3.464s1.3-3.219 3-3.464V5.5c0-.276-.224-.5-.5-.5h-21c-.276 0-.5.224-.5.5v3.036C2.7 8.781 4 10.26 4 12s-1.3 3.219-3 3.464V18.5z"/><circle cx="19" cy="7" r=".75"/><circle cx="19" cy="10" r=".75"/><circle cx="19" cy="14" r=".75"/><circle cx="19" cy="17" r=".75"/><path d="M8.25 16.5c-.965 0-1.75-.785-1.75-1.75S7.285 13 8.25 13c.261 0 .517.059.75.17v-2.837c.001-.647.413-1.218 1.026-1.422l3.024-.841c.137-.046.293-.072.451-.072.646 0 1.217.413 1.422 1.028.051.153.077.312.077.474v3.75c0 .965-.785 1.75-1.75 1.75s-1.75-.785-1.75-1.75.785-1.75 1.75-1.75c.261 0 .517.059.75.17V9.5c0-.054-.009-.107-.026-.158C13.906 9.137 13.716 9 13.5 9c-.053 0-.106.009-.157.026l-3.024.841c-.183.061-.319.254-.319.466v4.417c0 .965-.785 1.75-1.75 1.75zm0-2.5c-.414 0-.75.336-.75.75s.336.75.75.75.75-.336.75-.75-.336-.75-.75-.75zm5-1.5c-.414 0-.75.336-.75.75s.336.75.75.75.75-.336.75-.75-.336-.75-.75-.75z"/></svg>