<svg xmlns="http://www.w3.org/2000/svg" viewBox="0 0 24 24"><path d="M6.001 10.5c-1.103 0-2-.897-2-2v-6c0-1.103.897-2 2-2h12c1.103 0 2 .897 2 2v6c0 1.103-.897 2-2 2h-12zm0-9c-.551 0-1 .449-1 1v6c0 .551.449 1 1 1h12c.552 0 1-.449 1-1v-6c0-.551-.448-1-1-1h-12z"/><path d="M8.001 7.5c-1.103 0-2-.897-2-2s.897-2 2-2 2 .897 2 2-.897 2-2 2zm0-3c-.551 0-1 .449-1 1s.449 1 1 1 1-.449 1-1-.449-1-1-1zM16.001 7.5c-1.103 0-2-.897-2-2s.897-2 2-2 2 .897 2 2-.897 2-2 2zm0-3c-.552 0-1 .449-1 1s.448 1 1 1 1-.449 1-1-.449-1-1-1zM10.501 12.5c-.276 0-.5-.224-.5-.5s.224-.5.5-.5h3c.276 0 .5.224.5.5s-.224.5-.5.5h-3zM10.501 14.5c-.276 0-.5-.224-.5-.5s.224-.5.5-.5h3c.276 0 .5.224.5.5s-.224.5-.5.5h-3z"/><path d="M6.401 23.5c-.475-.004-.875-.328-.974-.79l-.466-2.177c-.061-.286-.092-.578-.092-.869 0-.051.002-.101.005-.151L3.007 18.07c-1.201-.944-1.79-2.492-1.532-3.987-.096-.057-.188-.118-.274-.183-1.323-.992-1.592-2.876-.6-4.2.094-.125.244-.2.4-.2.109 0 .213.035.3.1.107.08.176.197.195.329.019.132-.015.264-.095.371-.662.882-.482 2.138.4 2.8.348.261.762.399 1.197.399.638 0 1.222-.291 1.603-.799.094-.125.243-.2.4-.2.109 0 .212.035.3.1.107.08.176.197.195.329.019.132-.015.264-.095.371-.563.75-1.461 1.199-2.403 1.199-.187 0-.375-.018-.562-.054-.117 1.074.332 2.165 1.186 2.836l1.445 1.117c.2-.631.549-1.206 1.021-1.678.786-.787 1.831-1.22 2.943-1.22h5.94c.297 0 .59.031.874.092 1.087.232 2.019.875 2.623 1.808.2.309.358.643.47.997l1.445-1.118c.852-.669 1.301-1.76 1.183-2.834-.187.036-.375.054-.562.054-.942 0-1.84-.448-2.403-1.199-.08-.106-.114-.238-.095-.37.019-.132.088-.25.195-.33.087-.065.19-.1.3-.1.157 0 .307.075.401.201.38.508.965.799 1.602.799.435 0 .849-.138 1.198-.399.882-.662 1.062-1.918.4-2.8-.08-.107-.114-.238-.095-.371.019-.132.088-.249.195-.329.087-.065.19-.1.3-.1.157 0 .306.075.4.2.48.64.682 1.43.568 2.224-.114.794-.529 1.496-1.169 1.976-.087.065-.179.127-.276.183.255 1.499-.333 3.045-1.527 3.984l-1.865 1.443c.013.346-.017.69-.088 1.023l-.466 2.176c-.098.458-.51.791-.978.791h-11.2zm2.63-7c-.845 0-1.639.329-2.236.927-.597.598-.926 1.392-.926 2.237 0 .221.024.443.07.66l.466 2.176h1.596v-3c0-.552.449-1 1-1h6c.552 0 1 .448 1 1v3h1.6l.466-2.176c.177-.826.021-1.672-.438-2.381-.459-.709-1.167-1.197-1.993-1.374-.217-.046-.439-.07-.661-.07H9.031zm5.97 6v-3h-6v3h6z"/></svg>