<svg xmlns="http://www.w3.org/2000/svg" viewBox="0 0 24 24"><path d="M3.4 24c-.769 0-1.41-.572-1.496-1.33l-.778-7.001c-.006-.055-.009-.11-.009-.165 0-.827.673-1.5 1.5-1.5H4V8.896c-.211.041-.426.061-.642.061-.825 0-1.618-.301-2.232-.848C.377 7.442-.033 6.485.001 5.483L0 4.5c0-.013.001-.028.004-.042.004-.045.014-.088.029-.13 0-.001.001-.004.003-.008.004-.014.009-.027.015-.04L1.777.829C2.032.318 2.546 0 3.118 0h17.764c.573.001 1.087.321 1.342.833l1.724 3.443c.005.011.011.026.015.038.002.006.004.012.006.016.015.042.025.086.029.132.001.013.002.026.002.038v.996c.061 1.842-1.394 3.399-3.243 3.464-.037.001-.073.002-.109.002-.216 0-.433-.021-.648-.063v5.105h1.383c.054 0 .109.003.163.009.823.091 1.418.834 1.328 1.656l-.773 6.998c-.085.76-.726 1.333-1.491 1.333H3.4zm-.783-8.997c-.276 0-.5.224-.5.5 0 .019.001.037.003.055l.778 7c.029.252.242.442.497.442H20.61c.255 0 .469-.191.497-.445l.773-6.997c.015-.133-.023-.263-.107-.368-.083-.104-.203-.17-.335-.185a.49329.49329 0 0 0-.055-.003H2.617zm16.383-1V8.534c-.146-.081-.285-.173-.416-.274-.858 1.086-2.175 1.727-3.575 1.727-.81 0-1.607-.218-2.306-.632-.25-.148-.486-.319-.703-.511-.831.738-1.893 1.141-3.018 1.141-1.121 0-2.198-.411-3.031-1.157-.194-.174-.373-.365-.535-.569-.131.102-.27.193-.416.274v5.47h14zM6 7.355c.174.272.382.517.617.728.652.583 1.49.905 2.361.905.067 0 .134-.002.201-.006.88-.049 1.7-.419 2.32-1.046V5H6v2.355zm6.5.583c.216.218.455.405.711.557.545.322 1.166.492 1.796.492 1.223 0 2.337-.609 2.992-1.633V5h-5.5v2.938zm6.5-.643c.204.199.436.356.69.467.006.003.027.013.033.016.28.119.592.183.915.183.028 0 .056 0 .084-.001 1.301-.045 2.323-1.141 2.279-2.443V5h-4v2.295zM1 5.5c-.024.718.264 1.393.79 1.862.432.384.988.596 1.566.596.612 0 1.206-.24 1.644-.662V5H1v.5zM22.691 4l-1.363-2.722c-.085-.171-.256-.278-.447-.278H18.14l.75 3h3.801zm-4.832 0l-.75-3H12.5v3h5.359zM11.5 4V1H6.891l-.75 3H11.5zM5.111 4l.75-3H3.118c-.19 0-.361.106-.446.276L1.309 4h3.802z"/><path d="M10.642 22c-.402 0-.764-.23-.932-.587l-1.104-1.969c-.158-.349-.129-.716.069-1.001.188-.266.493-.426.839-.44h.214l.855-1.283c.093-.139.248-.223.416-.223.099 0 .195.029.277.084.229.153.292.464.139.693l-.485.728 2.137-.001-.484-.726c-.074-.111-.101-.244-.074-.375.026-.131.102-.244.213-.318.083-.055.178-.084.277-.084.167 0 .323.083.416.223L14.27 18h.207c.327 0 .635.155.829.414.201.271.25.62.131.934-.009.025-.021.051-.035.074l-1.125 1.972c-.16.36-.527.598-.938.607h-2.697zm-.044-1.044c.018.036.03.045.034.047L13.337 21c.002 0 .022-.003.026-.013.009-.023.02-.045.032-.066l1.095-1.92c-.003 0-.007-.001-.01-.001l-4.959.003c-.006 0-.011.001-.016.004l1.093 1.949z"/></svg>